<?xml version="1.0" standalone="no"?><!DOCTYPE svg PUBLIC "-//W3C//DTD SVG 1.1//EN" 	"http://www.w3.org/Graphics/SVG/1.1/DTD/svg11.dtd"><svg width="1160" height="600" version="1.1"	xmlns="http://www.w3.org/2000/svg"><title>Krona (snapshot) - Fungi</title><defs>	<style type="text/css">	text {font-size: 9px; font-family: sans-serif; dominant-baseline:central}	path {stroke-width:0.22499999999999998;}	path.wedge {stroke:none}	path.line {fill:none;stroke:black;}	line {stroke:black;stroke-width:0.22499999999999998;}	line.tick {stroke-width:0.44999999999999996;}	line.pattern {stroke-width:0.15;}	circle {fill:none;stroke:black;stroke-width:0.22499999999999998;}	rect {stroke:black;stroke-width:0.22499999999999998;}	.highlight {stroke:black;stroke-width:1.125;}	.searchHighlight {fill:rgb(255, 255, 100);stroke:none;}	</style><pattern id="hiddenPattern" patternUnits="userSpaceOnUse" x="0" y="0" width="5.3999999999999995" height="5.3999999999999995"><line class="pattern" x1="0" y1="0" x2="2.6999999999999997" y2="2.6999999999999997"/><line class="pattern" x1="2.6999999999999997" y1="5.3999999999999995" x2="5.3999999999999995" y2="2.6999999999999997"/></pattern></defs><path class="wedge" fill="rgb(208,114,114)" d=" M 505,369 L 505,576 A 276,276 0 1,1 746.4346113308214,433.7360402118113 L 565.3586528327054,333.43401005295283 A 69,69 0 1 0 505,369 Z "/><path class="wedge" fill="rgb(212,127,127)" d=" M 505,415.2444279423202 L 505,576 A 276,276 0 0,1 279.14843384934534,141.35867478082375 L 410.6951647068504,233.75895372139297 A 115.2444279423202,115.2444279423202 0 0 0 505,415.2444279423202 Z "/><path class="wedge" fill="rgb(216,140,140)" d=" M 505,453.1570268758427 L 505,576 A 276,276 0 0,1 229.09781132992708,307.3472639168259 L 351.8972502708472,304.0771199172943 A 153.15702687584266,153.15702687584266 0 0 0 505,453.1570268758427 Z "/><path class="wedge" fill="rgb(216,140,140)" d=" M 505,453.1570268758427 L 505,576 A 276,276 0 0,1 229.09781132992708,307.3472639168259 L 351.8972502708472,304.0771199172943 A 153.15702687584266,153.15702687584266 0 0 0 505,453.1570268758427 Z "/><path class="wedge" fill="rgb(221,153,153)" d=" M 505,484.79862860321873 L 505,576 A 276,276 0 0,1 229.87988605951296,322.0209651326509 L 320.7905081254953,314.7443628878014 A 184.79862860321873,184.79862860321873 0 0 0 505,484.79862860321873 Z "/><path class="wedge" fill="rgb(221,162,153)" d=" M 320.7905081254953,314.7443628878014 L 229.87988605951296,322.0209651326509 A 276,276 0 0,1 229.09781132992708,307.3472639168259 L 320.2668619751595,304.91943585440345 A 184.79862860321873,184.79862860321873 0 0 0 320.7905081254953,314.7443628878014 Z "/><path class="wedge" fill="rgb(216,151,140)" d=" M 351.8972502708472,304.0771199172943 L 229.09781132992708,307.3472639168259 A 276,276 0 0,1 271.0252979024508,153.6038293589511 L 375.1635154441245,218.76231071959575 A 153.15702687584266,153.15702687584266 0 0 0 351.8972502708472,304.0771199172943 Z "/><path class="wedge" fill="rgb(221,162,153)" d=" M 320.2668619751595,304.91943585440345 L 229.09781132992708,307.3472639168259 A 276,276 0 0,1 236.88534945894003,234.4978308355723 L 325.48108794051046,256.1423513328903 A 184.79862860321873,184.79862860321873 0 0 0 320.2668619751595,304.91943585440345 Z "/><path class="wedge" fill="rgb(225,174,165)" d=" M 293.4715497035447,305.6329939162017 L 229.09781132992708,307.3472639168259 A 276,276 0 0,1 229.87988605951296,277.9790348673492 L 294.07115007773075,283.11698558465565 A 211.60344020190198,211.60344020190198 0 0 0 293.4715497035447,305.6329939162017 Z "/><path class="wedge" fill="rgb(225,175,165)" d=" M 294.07115007773075,283.11698558465565 L 229.87988605951296,277.9790348673492 A 276,276 0 0,1 233.77918161246419,248.86031215195655 L 297.0606586044281,260.7922685525457 A 211.60344020190198,211.60344020190198 0 0 0 294.07115007773075,283.11698558465565 Z "/><path class="wedge" fill="rgb(225,175,165)" d=" M 297.0606586044281,260.7922685525457 L 233.77918161246419,248.86031215195655 A 276,276 0 0,1 236.88534945894003,234.4978308355723 L 299.4420926702209,249.78085385550781 A 211.60344020190198,211.60344020190198 0 0 0 297.0606586044281,260.7922685525457 Z "/><path class="wedge" fill="rgb(221,164,153)" d=" M 325.48108794051046,256.1423513328903 L 236.88534945894003,234.4978308355723 A 276,276 0 0,1 240.75151741208646,220.32102253426473 L 328.0697203162031,246.65012404284548 A 184.79862860321873,184.79862860321873 0 0 0 325.48108794051046,256.1423513328903 Z "/><path class="wedge" fill="rgb(221,164,153)" d=" M 325.48108794051046,256.1423513328903 L 236.88534945894003,234.4978308355723 A 276,276 0 0,1 240.75151741208646,220.32102253426473 L 328.0697203162031,246.65012404284548 A 184.79862860321873,184.79862860321873 0 0 0 325.48108794051046,256.1423513328903 Z "/><path class="wedge" fill="rgb(221,165,153)" d=" M 328.0697203162031,246.65012404284548 L 240.75151741208646,220.32102253426473 A 276,276 0 0,1 245.3667263987948,206.37007295142365 L 331.1598807925109,237.30912277247708 A 184.79862860321873,184.79862860321873 0 0 0 328.0697203162031,246.65012404284548 Z "/><path class="wedge" fill="rgb(221,165,153)" d=" M 328.0697203162031,246.65012404284548 L 240.75151741208646,220.32102253426473 A 276,276 0 0,1 245.3667263987948,206.37007295142365 L 331.1598807925109,237.30912277247708 A 184.79862860321873,184.79862860321873 0 0 0 328.0697203162031,246.65012404284548 Z "/><path class="wedge" fill="rgb(221,165,153)" d=" M 331.1598807925109,237.30912277247708 L 245.3667263987948,206.37007295142365 A 276,276 0 0,1 250.71789410776597,192.68452756936364 L 334.7428099738286,228.14582560475316 A 184.79862860321873,184.79862860321873 0 0 0 331.1598807925109,237.30912277247708 Z "/><path class="wedge" fill="rgb(221,165,153)" d=" M 331.1598807925109,237.30912277247708 L 245.3667263987948,206.37007295142365 A 276,276 0 0,1 250.71789410776597,192.68452756936364 L 334.7428099738286,228.14582560475316 A 184.79862860321873,184.79862860321873 0 0 0 331.1598807925109,237.30912277247708 Z "/><path class="wedge" fill="rgb(221,165,153)" d=" M 334.7428099738286,228.14582560475316 L 250.71789410776597,192.68452756936364 A 276,276 0 0,1 256.7898520727435,179.30317955335596 L 338.80835165811936,219.18620690105524 A 184.79862860321873,184.79862860321873 0 0 0 334.7428099738286,228.14582560475316 Z "/><path class="wedge" fill="rgb(221,165,153)" d=" M 334.7428099738286,228.14582560475316 L 250.71789410776597,192.68452756936364 A 276,276 0 0,1 256.7898520727435,179.30317955335596 L 338.80835165811936,219.18620690105524 A 184.79862860321873,184.79862860321873 0 0 0 334.7428099738286,228.14582560475316 Z "/><path class="wedge" fill="rgb(221,166,153)" d=" M 338.80835165811936,219.18620690105524 L 256.7898520727435,179.30317955335596 A 276,276 0 0,1 263.5653886691787,166.2639597881886 L 343.344981625772,210.4556636740302 A 184.79862860321873,184.79862860321873 0 0 0 338.80835165811936,219.18620690105524 Z "/><path class="wedge" fill="rgb(221,166,153)" d=" M 338.80835165811936,219.18620690105524 L 256.7898520727435,179.30317955335596 A 276,276 0 0,1 263.5653886691787,166.2639597881886 L 343.344981625772,210.4556636740302 A 184.79862860321873,184.79862860321873 0 0 0 338.80835165811936,219.18620690105524 Z "/><path class="wedge" fill="rgb(221,166,153)" d=" M 343.344981625772,210.4556636740302 L 263.5653886691787,166.2639597881886 A 276,276 0 0,1 271.0252979024508,153.6038293589511 L 348.3398403062546,201.97894359699774 A 184.79862860321873,184.79862860321873 0 0 0 343.344981625772,210.4556636740302 Z "/><path class="wedge" fill="rgb(221,166,153)" d=" M 343.344981625772,210.4556636740302 L 263.5653886691787,166.2639597881886 A 276,276 0 0,1 271.0252979024508,153.6038293589511 L 348.3398403062546,201.97894359699774 A 184.79862860321873,184.79862860321873 0 0 0 343.344981625772,210.4556636740302 Z "/><path class="wedge" fill="rgb(216,155,140)" d=" M 375.1635154441245,218.76231071959575 L 271.0252979024508,153.6038293589511 A 276,276 0 0,1 279.14843384934534,141.35867478082375 L 379.67117975765586,211.9672691658961 A 153.15702687584266,153.15702687584266 0 0 0 375.1635154441245,218.76231071959575 Z "/><path class="wedge" fill="rgb(216,155,140)" d=" M 375.1635154441245,218.76231071959575 L 271.0252979024508,153.6038293589511 A 276,276 0 0,1 279.14843384934534,141.35867478082375 L 379.67117975765586,211.9672691658961 A 153.15702687584266,153.15702687584266 0 0 0 375.1635154441245,218.76231071959575 Z "/><path class="wedge" fill="rgb(216,155,140)" d=" M 375.1635154441245,218.76231071959575 L 271.0252979024508,153.6038293589511 A 276,276 0 0,1 279.14843384934534,141.35867478082375 L 379.67117975765586,211.9672691658961 A 153.15702687584266,153.15702687584266 0 0 0 375.1635154441245,218.76231071959575 Z "/><path class="wedge" fill="rgb(212,145,127)" d=" M 410.6951647068504,233.75895372139297 L 279.14843384934534,141.35867478082375 A 276,276 0 0,1 746.4346113308212,166.2639597881884 L 605.8115712619453,244.1582121395603 A 115.2444279423202,115.2444279423202 0 0 0 410.6951647068504,233.75895372139297 Z "/><path class="wedge" fill="rgb(216,156,140)" d=" M 379.67117975765586,211.9672691658961 L 279.14843384934534,141.35867478082375 A 276,276 0 0,1 632.261530400014,55.09082728438625 L 575.6195566367239,164.0957943922259 A 153.15702687584266,153.15702687584266 0 0 0 379.67117975765586,211.9672691658961 Z "/><path class="wedge" fill="rgb(221,167,153)" d=" M 353.77876922996336,193.78007485398192 L 279.14843384934534,141.35867478082375 A 276,276 0 0,1 418.31482748194185,37.9662600627268 L 446.95905434213563,124.55262395586757 A 184.79862860321873,184.79862860321873 0 0 0 353.77876922996336,193.78007485398192 Z "/><path class="wedge" fill="rgb(221,167,153)" d=" M 353.77876922996336,193.78007485398192 L 279.14843384934534,141.35867478082375 A 276,276 0 0,1 418.31482748194185,37.9662600627268 L 446.95905434213563,124.55262395586757 A 184.79862860321873,184.79862860321873 0 0 0 353.77876922996336,193.78007485398192 Z "/><path class="wedge" fill="rgb(221,171,153)" d=" M 446.95905434213563,124.55262395586757 L 418.31482748194185,37.9662600627268 A 276,276 0 0,1 548.9015249012637,27.513934096908883 L 534.3947159251579,117.55416198413943 A 184.79862860321873,184.79862860321873 0 0 0 446.95905434213563,124.55262395586757 Z "/><path class="wedge" fill="rgb(221,171,153)" d=" M 446.95905434213563,124.55262395586757 L 418.31482748194185,37.9662600627268 A 276,276 0 0,1 548.9015249012637,27.513934096908883 L 534.3947159251579,117.55416198413943 A 184.79862860321873,184.79862860321873 0 0 0 446.95905434213563,124.55262395586757 Z "/><path class="wedge" fill="rgb(221,174,153)" d=" M 534.3947159251579,117.55416198413943 L 548.9015249012637,27.513934096908883 A 276,276 0 0,1 619.0465632720723,48.66480269204391 L 581.3610452521347,131.71594281800841 A 184.79862860321873,184.79862860321873 0 0 0 534.3947159251579,117.55416198413943 Z "/><path class="wedge" fill="rgb(221,174,153)" d=" M 534.3947159251579,117.55416198413943 L 548.9015249012637,27.513934096908883 A 276,276 0 0,1 619.0465632720723,48.66480269204391 L 581.3610452521347,131.71594281800841 A 184.79862860321873,184.79862860321873 0 0 0 534.3947159251579,117.55416198413943 Z "/><path class="wedge" fill="rgb(221,176,153)" d=" M 581.3610452521347,131.71594281800841 L 619.0465632720723,48.66480269204391 A 276,276 0 0,1 632.261530400014,55.09082728438625 L 590.209261927063,136.01855344132517 A 184.79862860321873,184.79862860321873 0 0 0 581.3610452521347,131.71594281800841 Z "/><path class="wedge" fill="rgb(221,176,153)" d=" M 581.3610452521347,131.71594281800841 L 619.0465632720723,48.66480269204391 A 276,276 0 0,1 632.261530400014,55.09082728438625 L 590.209261927063,136.01855344132517 A 184.79862860321873,184.79862860321873 0 0 0 581.3610452521347,131.71594281800841 Z "/><path class="wedge" fill="rgb(216,166,140)" d=" M 575.6195566367239,164.0957943922259 L 632.261530400014,55.09082728438625 A 276,276 0 0,1 746.4346113308212,166.2639597881884 L 638.9761132476566,225.78762932974925 A 153.15702687584266,153.15702687584266 0 0 0 575.6195566367239,164.0957943922259 Z "/><path class="wedge" fill="rgb(216,166,140)" d=" M 575.6195566367239,164.0957943922259 L 632.261530400014,55.09082728438625 A 276,276 0 0,1 746.4346113308212,166.2639597881884 L 638.9761132476566,225.78762932974925 A 153.15702687584266,153.15702687584266 0 0 0 575.6195566367239,164.0957943922259 Z "/><path class="wedge" fill="rgb(221,176,153)" d=" M 590.209261927063,136.01855344132517 L 632.261530400014,55.09082728438625 A 276,276 0 0,1 692.2140668104139,97.20233436179333 L 630.351097107956,164.21474458741056 A 184.79862860321873,184.79862860321873 0 0 0 590.209261927063,136.01855344132517 Z "/><path class="wedge" fill="rgb(221,178,153)" d=" M 630.351097107956,164.21474458741056 L 692.2140668104139,97.20233436179333 A 276,276 0 0,1 738.9747020975492,153.60382935895103 L 661.6601596937454,201.97894359699768 A 184.79862860321873,184.79862860321873 0 0 0 630.351097107956,164.21474458741056 Z "/><path class="wedge" fill="rgb(221,179,153)" d=" M 661.6601596937454,201.97894359699768 L 738.9747020975492,153.60382935895103 A 276,276 0 0,1 746.4346113308212,166.2639597881884 L 666.6550183742279,210.45566367403006 A 184.79862860321873,184.79862860321873 0 0 0 661.6601596937454,201.97894359699768 Z "/><path class="wedge" fill="rgb(212,161,127)" d=" M 605.8115712619453,244.1582121395603 L 746.4346113308212,166.2639597881884 A 276,276 0 0,1 780.120113940487,322.0209651326508 L 619.8770295162949,309.19490409221055 A 115.2444279423202,115.2444279423202 0 0 0 605.8115712619453,244.1582121395603 Z "/><path class="wedge" fill="rgb(216,171,140)" d=" M 638.9761132476566,225.78762932974925 L 746.4346113308212,166.2639597881884 A 276,276 0 0,1 780.120113940487,277.97903486734907 L 657.6687633509713,287.7801972874876 A 153.15702687584266,153.15702687584266 0 0 0 638.9761132476566,225.78762932974925 Z "/><path class="wedge" fill="rgb(221,180,153)" d=" M 666.6550183742279,210.45566367403006 L 746.4346113308212,166.2639597881884 A 276,276 0 0,1 773.11465054106,234.49783083557222 L 684.5189120594896,256.14235133289026 A 184.79862860321873,184.79862860321873 0 0 0 666.6550183742279,210.45566367403006 Z "/><path class="wedge" fill="rgb(225,189,165)" d=" M 690.1028780485901,197.46736888478537 L 746.4346113308212,166.2639597881884 A 276,276 0 0,1 769.2484825879135,220.3210225342644 L 707.5937970425177,238.9117907843497 A 211.60344020190198,211.60344020190198 0 0 0 690.1028780485901,197.46736888478537 Z "/><path class="wedge" fill="rgb(225,190,165)" d=" M 707.5937970425177,238.9117907843497 L 769.2484825879135,220.3210225342644 A 276,276 0 0,1 773.11465054106,234.49783083557222 L 710.557907329779,249.78085385550776 A 211.60344020190198,211.60344020190198 0 0 0 707.5937970425177,238.9117907843497 Z "/><path class="wedge" fill="rgb(221,182,153)" d=" M 684.5189120594896,256.14235133289026 L 773.11465054106,234.49783083557222 A 276,276 0 0,1 780.120113940487,277.97903486734907 L 689.2094918745047,285.2556371121986 A 184.79862860321873,184.79862860321873 0 0 0 684.5189120594896,256.14235133289026 Z "/><path class="wedge" fill="rgb(225,191,165)" d=" M 710.557907329779,249.78085385550776 L 773.11465054106,234.49783083557222 A 276,276 0 0,1 778.5581813571059,263.3677544696926 L 714.7313488063023,271.91482182415297 A 211.60344020190198,211.60344020190198 0 0 0 710.557907329779,249.78085385550776 Z "/><path class="wedge" fill="rgb(225,191,165)" d=" M 714.7313488063023,271.91482182415297 L 778.5581813571059,263.3677544696926 A 276,276 0 0,1 780.120113940487,277.97903486734907 L 715.9288499222693,283.11698558465554 A 211.60344020190198,211.60344020190198 0 0 0 714.7313488063023,271.91482182415297 Z "/><path class="wedge" fill="rgb(216,174,140)" d=" M 657.6687633509713,287.7801972874876 L 780.120113940487,277.97903486734907 A 276,276 0 0,1 780.902188670073,307.34726391682585 L 658.1027497291528,304.0771199172942 A 153.15702687584266,153.15702687584266 0 0 0 657.6687633509713,287.7801972874876 Z "/><path class="wedge" fill="rgb(221,183,153)" d=" M 689.2094918745047,285.2556371121986 L 780.120113940487,277.97903486734907 A 276,276 0 0,1 780.902188670073,292.65273608317403 L 689.7331380248405,295.08056414559655 A 184.79862860321873,184.79862860321873 0 0 0 689.2094918745047,285.2556371121986 Z "/><path class="wedge" fill="rgb(221,183,153)" d=" M 689.2094918745047,285.2556371121986 L 780.120113940487,277.97903486734907 A 276,276 0 0,1 780.902188670073,292.65273608317403 L 689.7331380248405,295.08056414559655 A 184.79862860321873,184.79862860321873 0 0 0 689.2094918745047,285.2556371121986 Z "/><path class="wedge" fill="rgb(221,183,153)" d=" M 689.7331380248405,295.08056414559655 L 780.902188670073,292.65273608317403 A 276,276 0 0,1 780.902188670073,307.34726391682585 L 689.7331380248405,304.91943585440333 A 184.79862860321873,184.79862860321873 0 0 0 689.7331380248405,295.08056414559655 Z "/><path class="wedge" fill="rgb(221,183,153)" d=" M 689.7331380248405,295.08056414559655 L 780.902188670073,292.65273608317403 A 276,276 0 0,1 780.902188670073,307.34726391682585 L 689.7331380248405,304.91943585440333 A 184.79862860321873,184.79862860321873 0 0 0 689.7331380248405,295.08056414559655 Z "/><path class="wedge" fill="rgb(216,174,140)" d=" M 658.1027497291528,304.0771199172942 L 780.902188670073,307.34726391682585 A 276,276 0 0,1 780.120113940487,322.0209651326508 L 657.6687633509713,312.21980271251226 A 153.15702687584266,153.15702687584266 0 0 0 658.1027497291528,304.0771199172942 Z "/><path class="wedge" fill="rgb(216,174,140)" d=" M 658.1027497291528,304.0771199172942 L 780.902188670073,307.34726391682585 A 276,276 0 0,1 780.120113940487,322.0209651326508 L 657.6687633509713,312.21980271251226 A 153.15702687584266,153.15702687584266 0 0 0 658.1027497291528,304.0771199172942 Z "/><path class="wedge" fill="rgb(216,174,140)" d=" M 658.1027497291528,304.0771199172942 L 780.902188670073,307.34726391682585 A 276,276 0 0,1 780.120113940487,322.0209651326508 L 657.6687633509713,312.21980271251226 A 153.15702687584266,153.15702687584266 0 0 0 658.1027497291528,304.0771199172942 Z "/><path class="wedge" fill="rgb(212,166,127)" d=" M 619.8770295162949,309.19490409221055 L 780.120113940487,322.0209651326508 A 276,276 0 0,1 753.2101479272566,420.69682044664404 L 608.6407119831715,350.39723198126967 A 115.2444279423202,115.2444279423202 0 0 0 619.8770295162949,309.19490409221055 Z "/><path class="wedge" fill="rgb(212,166,127)" d=" M 619.8770295162949,309.19490409221055 L 780.120113940487,322.0209651326508 A 276,276 0 0,1 753.2101479272566,420.69682044664404 L 608.6407119831715,350.39723198126967 A 115.2444279423202,115.2444279423202 0 0 0 619.8770295162949,309.19490409221055 Z "/><path class="wedge" fill="rgb(212,166,127)" d=" M 619.8770295162949,309.19490409221055 L 780.120113940487,322.0209651326508 A 276,276 0 0,1 753.2101479272566,420.69682044664404 L 608.6407119831715,350.39723198126967 A 115.2444279423202,115.2444279423202 0 0 0 619.8770295162949,309.19490409221055 Z "/><path class="wedge" fill="rgb(212,166,127)" d=" M 619.8770295162949,309.19490409221055 L 780.120113940487,322.0209651326508 A 276,276 0 0,1 753.2101479272566,420.69682044664404 L 608.6407119831715,350.39723198126967 A 115.2444279423202,115.2444279423202 0 0 0 619.8770295162949,309.19490409221055 Z "/><path class="wedge" fill="rgb(212,169,127)" d=" M 608.6407119831715,350.39723198126967 L 753.2101479272566,420.69682044664404 A 276,276 0 0,1 746.4346113308214,433.7360402118113 L 605.8115712619453,355.8417878604396 A 115.2444279423202,115.2444279423202 0 0 0 608.6407119831715,350.39723198126967 Z "/><path class="wedge" fill="rgb(212,169,127)" d=" M 608.6407119831715,350.39723198126967 L 753.2101479272566,420.69682044664404 A 276,276 0 0,1 746.4346113308214,433.7360402118113 L 605.8115712619453,355.8417878604396 A 115.2444279423202,115.2444279423202 0 0 0 608.6407119831715,350.39723198126967 Z "/><path class="wedge" fill="rgb(212,169,127)" d=" M 608.6407119831715,350.39723198126967 L 753.2101479272566,420.69682044664404 A 276,276 0 0,1 746.4346113308214,433.7360402118113 L 605.8115712619453,355.8417878604396 A 115.2444279423202,115.2444279423202 0 0 0 608.6407119831715,350.39723198126967 Z "/><path class="wedge" fill="rgb(212,169,127)" d=" M 608.6407119831715,350.39723198126967 L 753.2101479272566,420.69682044664404 A 276,276 0 0,1 746.4346113308214,433.7360402118113 L 605.8115712619453,355.8417878604396 A 115.2444279423202,115.2444279423202 0 0 0 608.6407119831715,350.39723198126967 Z "/><path class="wedge" fill="rgb(114,208,114)" d=" M 565.3586528327054,333.43401005295283 L 746.4346113308214,433.7360402118113 A 276,276 0 0,1 591.6851725180579,562.0337399372733 L 526.6712931295144,365.50843498431834 A 69,69 0 0 0 565.3586528327054,333.43401005295283 Z "/><path class="wedge" fill="rgb(127,212,127)" d=" M 605.8115712619453,355.8417878604396 L 746.4346113308214,433.7360402118113 A 276,276 0 0,1 632.2615304000141,544.9091727156137 L 558.138341558021,402.26238227332533 A 115.2444279423202,115.2444279423202 0 0 0 605.8115712619453,355.8417878604396 Z "/><path class="wedge" fill="rgb(127,212,127)" d=" M 605.8115712619453,355.8417878604396 L 746.4346113308214,433.7360402118113 A 276,276 0 0,1 632.2615304000141,544.9091727156137 L 558.138341558021,402.26238227332533 A 115.2444279423202,115.2444279423202 0 0 0 605.8115712619453,355.8417878604396 Z "/><path class="wedge" fill="rgb(140,216,140)" d=" M 638.9761132476567,374.21237067025055 L 746.4346113308214,433.7360402118113 A 276,276 0 0,1 669.5973909566266,521.5484120689458 L 596.3378515595566,422.9409279041442 A 153.15702687584266,153.15702687584266 0 0 0 638.9761132476567,374.21237067025055 Z "/><path class="wedge" fill="rgb(140,216,140)" d=" M 638.9761132476567,374.21237067025055 L 746.4346113308214,433.7360402118113 A 276,276 0 0,1 669.5973909566266,521.5484120689458 L 596.3378515595566,422.9409279041442 A 153.15702687584266,153.15702687584266 0 0 0 638.9761132476567,374.21237067025055 Z "/><path class="wedge" fill="rgb(140,216,161)" d=" M 596.3378515595566,422.9409279041442 L 669.5973909566266,521.5484120689458 A 276,276 0 0,1 632.2615304000141,544.9091727156137 L 575.619556636724,435.9042056077741 A 153.15702687584266,153.15702687584266 0 0 0 596.3378515595566,422.9409279041442 Z "/><path class="wedge" fill="rgb(140,216,161)" d=" M 596.3378515595566,422.9409279041442 L 669.5973909566266,521.5484120689458 A 276,276 0 0,1 632.2615304000141,544.9091727156137 L 575.619556636724,435.9042056077741 A 153.15702687584266,153.15702687584266 0 0 0 596.3378515595566,422.9409279041442 Z "/><path class="wedge" fill="rgb(127,212,160)" d=" M 558.138341558021,402.26238227332533 L 632.2615304000141,544.9091727156137 A 276,276 0 0,1 619.0465632720724,551.335197307956 L 552.6204019676725,404.94558346204917 A 115.2444279423202,115.2444279423202 0 0 0 558.138341558021,402.26238227332533 Z "/><path class="wedge" fill="rgb(127,212,160)" d=" M 558.138341558021,402.26238227332533 L 632.2615304000141,544.9091727156137 A 276,276 0 0,1 619.0465632720724,551.335197307956 L 552.6204019676725,404.94558346204917 A 115.2444279423202,115.2444279423202 0 0 0 558.138341558021,402.26238227332533 Z "/><path class="wedge" fill="rgb(127,212,160)" d=" M 558.138341558021,402.26238227332533 L 632.2615304000141,544.9091727156137 A 276,276 0 0,1 619.0465632720724,551.335197307956 L 552.6204019676725,404.94558346204917 A 115.2444279423202,115.2444279423202 0 0 0 558.138341558021,402.26238227332533 Z "/><path class="wedge" fill="rgb(127,212,160)" d=" M 558.138341558021,402.26238227332533 L 632.2615304000141,544.9091727156137 A 276,276 0 0,1 619.0465632720724,551.335197307956 L 552.6204019676725,404.94558346204917 A 115.2444279423202,115.2444279423202 0 0 0 558.138341558021,402.26238227332533 Z "/><path class="wedge" fill="rgb(127,212,163)" d=" M 552.6204019676725,404.94558346204917 L 619.0465632720724,551.335197307956 A 276,276 0 0,1 605.5083187697791,557.0487849768454 L 546.9674771741578,407.33130499248193 A 115.2444279423202,115.2444279423202 0 0 0 552.6204019676725,404.94558346204917 Z "/><path class="wedge" fill="rgb(127,212,163)" d=" M 552.6204019676725,404.94558346204917 L 619.0465632720724,551.335197307956 A 276,276 0 0,1 605.5083187697791,557.0487849768454 L 546.9674771741578,407.33130499248193 A 115.2444279423202,115.2444279423202 0 0 0 552.6204019676725,404.94558346204917 Z "/><path class="wedge" fill="rgb(127,212,163)" d=" M 552.6204019676725,404.94558346204917 L 619.0465632720724,551.335197307956 A 276,276 0 0,1 605.5083187697791,557.0487849768454 L 546.9674771741578,407.33130499248193 A 115.2444279423202,115.2444279423202 0 0 0 552.6204019676725,404.94558346204917 Z "/><path class="wedge" fill="rgb(127,212,163)" d=" M 552.6204019676725,404.94558346204917 L 619.0465632720724,551.335197307956 A 276,276 0 0,1 605.5083187697791,557.0487849768454 L 546.9674771741578,407.33130499248193 A 115.2444279423202,115.2444279423202 0 0 0 552.6204019676725,404.94558346204917 Z "/><path class="wedge" fill="rgb(127,212,166)" d=" M 546.9674771741578,407.33130499248193 L 605.5083187697791,557.0487849768454 A 276,276 0 0,1 591.6851725180579,562.0337399372733 L 541.1955910069744,409.41278427774546 A 115.2444279423202,115.2444279423202 0 0 0 546.9674771741578,407.33130499248193 Z "/><path class="wedge" fill="rgb(127,212,166)" d=" M 546.9674771741578,407.33130499248193 L 605.5083187697791,557.0487849768454 A 276,276 0 0,1 591.6851725180579,562.0337399372733 L 541.1955910069744,409.41278427774546 A 115.2444279423202,115.2444279423202 0 0 0 546.9674771741578,407.33130499248193 Z "/><path class="wedge" fill="rgb(127,212,166)" d=" M 546.9674771741578,407.33130499248193 L 605.5083187697791,557.0487849768454 A 276,276 0 0,1 591.6851725180579,562.0337399372733 L 541.1955910069744,409.41278427774546 A 115.2444279423202,115.2444279423202 0 0 0 546.9674771741578,407.33130499248193 Z "/><path class="wedge" fill="rgb(127,212,166)" d=" M 546.9674771741578,407.33130499248193 L 605.5083187697791,557.0487849768454 A 276,276 0 0,1 591.6851725180579,562.0337399372733 L 541.1955910069744,409.41278427774546 A 115.2444279423202,115.2444279423202 0 0 0 546.9674771741578,407.33130499248193 Z "/><path class="wedge" fill="rgb(114,114,208)" d=" M 526.6712931295144,365.50843498431834 L 591.6851725180579,562.0337399372733 A 276,276 0 0,1 505.00000000000006,576 L 505,369 A 69,69 0 0 0 526.6712931295144,365.50843498431834 Z "/><path class="wedge" fill="rgb(127,127,212)" d=" M 541.1955910069744,409.41278427774546 L 591.6851725180579,562.0337399372733 A 276,276 0 0,1 548.9015249012641,572.486065903091 L 523.3311816052236,413.777176765417 A 115.2444279423202,115.2444279423202 0 0 0 541.1955910069744,409.41278427774546 Z "/><path class="wedge" fill="rgb(127,127,212)" d=" M 541.1955910069744,409.41278427774546 L 591.6851725180579,562.0337399372733 A 276,276 0 0,1 548.9015249012641,572.486065903091 L 523.3311816052236,413.777176765417 A 115.2444279423202,115.2444279423202 0 0 0 541.1955910069744,409.41278427774546 Z "/><path class="wedge" fill="rgb(127,127,212)" d=" M 541.1955910069744,409.41278427774546 L 591.6851725180579,562.0337399372733 A 276,276 0 0,1 548.9015249012641,572.486065903091 L 523.3311816052236,413.777176765417 A 115.2444279423202,115.2444279423202 0 0 0 541.1955910069744,409.41278427774546 Z "/><path class="wedge" fill="rgb(127,127,212)" d=" M 541.1955910069744,409.41278427774546 L 591.6851725180579,562.0337399372733 A 276,276 0 0,1 548.9015249012641,572.486065903091 L 523.3311816052236,413.777176765417 A 115.2444279423202,115.2444279423202 0 0 0 541.1955910069744,409.41278427774546 Z "/><path class="wedge" fill="rgb(148,127,212)" d=" M 523.3311816052236,413.777176765417 L 548.9015249012641,572.486065903091 A 276,276 0 0,1 505.00000000000006,576 L 505.00000000000006,415.2444279423202 A 115.2444279423202,115.2444279423202 0 0 0 523.3311816052236,413.777176765417 Z "/><path class="wedge" fill="rgb(148,127,212)" d=" M 523.3311816052236,413.777176765417 L 548.9015249012641,572.486065903091 A 276,276 0 0,1 505.00000000000006,576 L 505.00000000000006,415.2444279423202 A 115.2444279423202,115.2444279423202 0 0 0 523.3311816052236,413.777176765417 Z "/><path class="wedge" fill="rgb(148,127,212)" d=" M 523.3311816052236,413.777176765417 L 548.9015249012641,572.486065903091 A 276,276 0 0,1 505.00000000000006,576 L 505.00000000000006,415.2444279423202 A 115.2444279423202,115.2444279423202 0 0 0 523.3311816052236,413.777176765417 Z "/><path class="wedge" fill="rgb(159,140,216)" d=" M 529.3616921347586,451.2070859377259 L 548.9015249012641,572.486065903091 A 276,276 0 0,1 519.6893202564415,575.6088240067863 L 513.1513500626945,452.93995675951726 A 153.15702687584266,153.15702687584266 0 0 0 529.3616921347586,451.2070859377259 Z "/><path class="wedge" fill="rgb(171,140,216)" d=" M 513.1513500626945,452.93995675951726 L 519.6893202564415,575.6088240067863 A 276,276 0 0,1 505.00000000000006,576 L 505.00000000000006,453.1570268758427 A 153.15702687584266,153.15702687584266 0 0 0 513.1513500626945,452.93995675951726 Z "/><circle cx="505" cy="300" r="69"/><circle cx="505" cy="300" r="276"/><text x="505" y="300" text-anchor="middle" style="font-color:black;font-weight:bold" transform="rotate(360,505,300)">Fungi</text><path class="line" d=" M 565.3586528327054,333.43401005295283 A 69,69 0 1 0 505,369"/><line x1="746.4346113308214" y1="433.7360402118113" x2="565.3586528327054" y2="333.43401005295283"/><text x="505" y="217.12667161730394" text-anchor="middle" style="font-color:black;font-weight:normal" transform="rotate(329.4915254237288,505,300)">Ascomycota</text><path class="line" d=" M 410.6951647068504,233.75895372139297 A 115.2444279423202,115.2444279423202 0 0 0 505,415.2444279423202"/><line x1="279.14843384934534" y1="141.35867478082375" x2="410.6951647068504" y2="233.75895372139297"/><text x="505" y="426.61820762237693" text-anchor="middle" style="font-color:black;font-weight:normal" transform="rotate(62.54237288135592,505,300)">Dothideomycetes</text><line x1="229.09781132992708" y1="307.3472639168259" x2="351.8972502708472" y2="304.0771199172943"/><path class="line" d=" M 351.8972502708472,304.0771199172943 A 153.15702687584266,153.15702687584266 0 0 0 505,453.1570268758427"/><text x="505" y="462.6495073940555" text-anchor="middle" style="font-color:black;font-weight:normal" transform="rotate(44.23728813559321,505,300)">Cladosporiaceae</text><path class="line" d=" M 320.7905081254953,314.7443628878014 A 184.79862860321873,184.79862860321873 0 0 0 505,484.79862860321873"/><line x1="229.87988605951296" y1="322.0209651326509" x2="320.7905081254953" y2="314.7443628878014"/><text x="274.60068569839063" y="300" text-anchor="end" style="font-color:black;font-weight:normal" transform="rotate(-47.28813559322033,505,300)">Cladosporium&#160;&#160;&#160;24%</text><path class="line" d=" M 320.2668619751595,304.91943585440345 A 184.79862860321873,184.79862860321873 0 0 0 320.7905081254953,314.7443628878014"/><text x="274.60068569839063" y="300" text-anchor="end" style="font-color:black;font-weight:normal" transform="rotate(-3.050847457627117,505,300)">Davidiella&#160;&#160;&#160;0.8%</text><path class="line" d=" M 375.1635154441245,218.76231071959575 A 153.15702687584266,153.15702687584266 0 0 0 351.8972502708472,304.0771199172943"/><line x1="271.0252979024508" y1="153.6038293589511" x2="375.1635154441245" y2="218.76231071959575"/><text x="505" y="124.69385191499407" text-anchor="middle" style="font-color:black;font-weight:normal" transform="rotate(285.2542372881356,505,300)">Pleosporales</text><path class="line" d=" M 325.48108794051046,256.1423513328903 A 184.79862860321873,184.79862860321873 0 0 0 320.2668619751595,304.91943585440345"/><line x1="236.88534945894003" y1="234.4978308355723" x2="325.48108794051046" y2="256.1423513328903"/><text x="505" y="107.15992791717628" text-anchor="middle" style="font-color:black;font-weight:normal" transform="rotate(276.1016949152542,505,300)">Phaeosphaeriaceae</text><path class="line" d=" M 294.07115007773075,283.11698558465565 A 211.60344020190198,211.60344020190198 0 0 0 293.4715497035447,305.6329939162017"/><line x1="229.87988605951296" y1="277.9790348673492" x2="294.07115007773075" y2="283.11698558465565"/><text x="261.198279899049" y="300" text-anchor="end" style="font-color:black;font-weight:normal" transform="rotate(1.525423728813546,505,300)">Septoriella&#160;&#160;&#160;2%</text><path class="line" d=" M 297.0606586044281,260.7922685525457 A 211.60344020190198,211.60344020190198 0 0 0 294.07115007773075,283.11698558465565"/><line x1="233.77918161246419" y1="248.86031215195655" x2="297.0606586044281" y2="260.7922685525457"/><text x="261.198279899049" y="300" text-anchor="end" style="font-color:black;font-weight:normal" transform="rotate(7.62711864406778,505,300)">Phaeosphaeria&#160;&#160;&#160;2%</text><path class="line" d=" M 299.4420926702209,249.78085385550781 A 211.60344020190198,211.60344020190198 0 0 0 297.0606586044281,260.7922685525457"/><text x="261.198279899049" y="300" text-anchor="end" style="font-color:black;font-weight:normal" transform="rotate(12.203389830508469,505,300)">Neostagonospora&#160;&#160;&#160;0.8%</text><line x1="240.75151741208646" y1="220.32102253426473" x2="328.0697203162031" y2="246.65012404284548"/><path class="line" d=" M 328.0697203162031,246.65012404284548 A 184.79862860321873,184.79862860321873 0 0 0 325.48108794051046,256.1423513328903"/><text x="274.60068569839063" y="300" text-anchor="end" style="font-color:black;font-weight:normal" transform="rotate(15.254237288135588,505,300)">Stagonospora&#160;&#160;&#160;0.8%</text><line x1="245.3667263987948" y1="206.37007295142365" x2="331.1598807925109" y2="237.30912277247708"/><path class="line" d=" M 331.1598807925109,237.30912277247708 A 184.79862860321873,184.79862860321873 0 0 0 328.0697203162031,246.65012404284548"/><text x="274.60068569839063" y="300" text-anchor="end" style="font-color:black;font-weight:normal" transform="rotate(18.305084745762702,505,300)">Dendryphion&#160;&#160;&#160;0.8%</text><line x1="250.71789410776597" y1="192.68452756936364" x2="334.7428099738286" y2="228.14582560475316"/><path class="line" d=" M 334.7428099738286,228.14582560475316 A 184.79862860321873,184.79862860321873 0 0 0 331.1598807925109,237.30912277247708"/><text x="274.60068569839063" y="300" text-anchor="end" style="font-color:black;font-weight:normal" transform="rotate(21.355932203389823,505,300)">NA&#160;&#160;&#160;0.8%</text><line x1="256.7898520727435" y1="179.30317955335596" x2="338.80835165811936" y2="219.18620690105524"/><path class="line" d=" M 338.80835165811936,219.18620690105524 A 184.79862860321873,184.79862860321873 0 0 0 334.7428099738286,228.14582560475316"/><text x="274.60068569839063" y="300" text-anchor="end" style="font-color:black;font-weight:normal" transform="rotate(24.406779661016937,505,300)">Periconia&#160;&#160;&#160;0.8%</text><line x1="263.5653886691787" y1="166.2639597881886" x2="343.344981625772" y2="210.4556636740302"/><path class="line" d=" M 343.344981625772,210.4556636740302 A 184.79862860321873,184.79862860321873 0 0 0 338.80835165811936,219.18620690105524"/><text x="274.60068569839063" y="300" text-anchor="end" style="font-color:black;font-weight:normal" transform="rotate(27.45762711864408,505,300)">Phoma&#160;&#160;&#160;0.8%</text><path class="line" d=" M 348.3398403062546,201.97894359699774 A 184.79862860321873,184.79862860321873 0 0 0 343.344981625772,210.4556636740302"/><text x="274.60068569839063" y="300" text-anchor="end" style="font-color:black;font-weight:normal" transform="rotate(30.508474576271176,505,300)">Pseudocamarosporium&#160;&#160;&#160;0.8%</text><path class="line" d=" M 379.67117975765586,211.9672691658961 A 153.15702687584266,153.15702687584266 0 0 0 375.1635154441245,218.76231071959575"/><text x="290.42148656207866" y="300" text-anchor="end" style="font-color:black;font-weight:normal" transform="rotate(33.55932203389832,505,300)">Ramularia&#160;&#160;&#160;0.8%</text><path class="line" d=" M 605.8115712619453,244.1582121395603 A 115.2444279423202,115.2444279423202 0 0 0 410.6951647068504,233.75895372139297"/><line x1="746.4346113308212" y1="166.2639597881884" x2="605.8115712619453" y2="244.1582121395603"/><text x="505" y="158.21675280421408" text-anchor="middle" style="font-color:black;font-weight:normal" transform="rotate(363.0508474576271,505,300)">Leotiomycetes</text><path class="line" d=" M 575.6195566367239,164.0957943922259 A 153.15702687584266,153.15702687584266 0 0 0 379.67117975765586,211.9672691658961"/><line x1="632.261530400014" y1="55.09082728438625" x2="575.6195566367239" y2="164.0957943922259"/><text x="505" y="137.3504926059445" text-anchor="middle" style="font-color:black;font-weight:normal" transform="rotate(346.271186440678,505,300)">Helotiales</text><line x1="418.31482748194185" y1="37.9662600627268" x2="446.95905434213563" y2="124.55262395586757"/><path class="line" d=" M 446.95905434213563,124.55262395586757 A 184.79862860321873,184.79862860321873 0 0 0 353.77876922996336,193.78007485398192"/><text x="274.60068569839063" y="300" text-anchor="end" style="font-color:black;font-weight:normal" transform="rotate(53.38983050847454,505,300)">NA&#160;&#160;&#160;10%</text><line x1="548.9015249012637" y1="27.513934096908883" x2="534.3947159251579" y2="117.55416198413943"/><path class="line" d=" M 534.3947159251579,117.55416198413943 A 184.79862860321873,184.79862860321873 0 0 0 446.95905434213563,124.55262395586757"/><text x="274.60068569839063" y="300" text-anchor="end" style="font-color:black;font-weight:normal" transform="rotate(85.4237288135593,505,300)">Cadophora&#160;&#160;&#160;8%</text><line x1="619.0465632720723" y1="48.66480269204391" x2="581.3610452521347" y2="131.71594281800841"/><path class="line" d=" M 581.3610452521347,131.71594281800841 A 184.79862860321873,184.79862860321873 0 0 0 534.3947159251579,117.55416198413943"/><text x="735.3993143016094" y="300" text-anchor="start" style="font-color:black;font-weight:normal" transform="rotate(286.77966101694915,505,300)">4%&#160;&#160;&#160;Patinella</text><path class="line" d=" M 590.209261927063,136.01855344132517 A 184.79862860321873,184.79862860321873 0 0 0 581.3610452521347,131.71594281800841"/><text x="735.3993143016094" y="300" text-anchor="start" style="font-color:black;font-weight:normal" transform="rotate(295.93220338983053,505,300)">0.8%&#160;&#160;&#160;Cistella</text><path class="line" d=" M 638.9761132476566,225.78762932974925 A 153.15702687584266,153.15702687584266 0 0 0 575.6195566367239,164.0957943922259"/><text x="505" y="124.69385191499407" text-anchor="middle" style="font-color:black;font-weight:normal" transform="rotate(404.2372881355932,505,300)">Pseudeurotiaceae</text><path class="line" d=" M 630.351097107956,164.21474458741056 A 184.79862860321873,184.79862860321873 0 0 0 590.209261927063,136.01855344132517"/><line x1="692.2140668104139" y1="97.20233436179333" x2="630.351097107956" y2="164.21474458741056"/><text x="735.3993143016094" y="300" text-anchor="start" style="font-color:black;font-weight:normal" transform="rotate(305.08474576271186,505,300)">4%&#160;&#160;&#160;Geomyces</text><path class="line" d=" M 661.6601596937454,201.97894359699768 A 184.79862860321873,184.79862860321873 0 0 0 630.351097107956,164.21474458741056"/><line x1="738.9747020975492" y1="153.60382935895103" x2="661.6601596937454" y2="201.97894359699768"/><text x="735.3993143016094" y="300" text-anchor="start" style="font-color:black;font-weight:normal" transform="rotate(320.33898305084745,505,300)">4%&#160;&#160;&#160;Pseudeurotium</text><path class="line" d=" M 666.6550183742279,210.45566367403006 A 184.79862860321873,184.79862860321873 0 0 0 661.6601596937454,201.97894359699768"/><text x="735.3993143016094" y="300" text-anchor="start" style="font-color:black;font-weight:normal" transform="rotate(329.4915254237288,505,300)">0.8%&#160;&#160;&#160;Pseudogymnoascus</text><path class="line" d=" M 619.8770295162949,309.19490409221055 A 115.2444279423202,115.2444279423202 0 0 0 605.8115712619453,244.1582121395603"/><line x1="780.120113940487" y1="322.0209651326508" x2="619.8770295162949" y2="309.19490409221055"/><text x="505" y="173.38179237762307" text-anchor="middle" style="font-color:black;font-weight:normal" transform="rotate(437.79661016949154,505,300)">Sordariomycetes</text><path class="line" d=" M 657.6687633509713,287.7801972874876 A 153.15702687584266,153.15702687584266 0 0 0 638.9761132476566,225.78762932974925"/><line x1="780.120113940487" y1="277.97903486734907" x2="657.6687633509713" y2="287.7801972874876"/><text x="505" y="137.3504926059445" text-anchor="middle" style="font-color:black;font-weight:normal" transform="rotate(433.2203389830508,505,300)">Hypocreales</text><path class="line" d=" M 684.5189120594896,256.14235133289026 A 184.79862860321873,184.79862860321873 0 0 0 666.6550183742279,210.45566367403006"/><line x1="773.11465054106" y1="234.49783083557222" x2="684.5189120594896" y2="256.14235133289026"/><text x="505" y="96.43800327770302" text-anchor="middle" style="font-color:black;font-weight:normal" transform="rotate(428.64406779661016,505,300)">Nectriaceae</text><path class="line" d=" M 707.5937970425177,238.9117907843497 A 211.60344020190198,211.60344020190198 0 0 0 690.1028780485901,197.46736888478537"/><line x1="769.2484825879135" y1="220.3210225342644" x2="707.5937970425177" y2="238.9117907843497"/><text x="748.801720100951" y="300" text-anchor="start" style="font-color:black;font-weight:normal" transform="rotate(337.1186440677966,505,300)">3%&#160;&#160;&#160;Ciliciopodium</text><path class="line" d=" M 710.557907329779,249.78085385550776 A 211.60344020190198,211.60344020190198 0 0 0 707.5937970425177,238.9117907843497"/><text x="748.801720100951" y="300" text-anchor="start" style="font-color:black;font-weight:normal" transform="rotate(344.74576271186436,505,300)">0.8%&#160;&#160;&#160;Fusarium</text><path class="line" d=" M 689.2094918745047,285.2556371121986 A 184.79862860321873,184.79862860321873 0 0 0 684.5189120594896,256.14235133289026"/><text x="505" y="107.15992791717628" text-anchor="middle" style="font-color:black;font-weight:normal" transform="rotate(440.8474576271187,505,300)">Hypocreaceae</text><path class="line" d=" M 714.7313488063023,271.91482182415297 A 211.60344020190198,211.60344020190198 0 0 0 710.557907329779,249.78085385550776"/><line x1="778.5581813571059" y1="263.3677544696926" x2="714.7313488063023" y2="271.91482182415297"/><text x="748.801720100951" y="300" text-anchor="start" style="font-color:black;font-weight:normal" transform="rotate(349.3220338983051,505,300)">2%&#160;&#160;&#160;Acremonium</text><path class="line" d=" M 715.9288499222693,283.11698558465554 A 211.60344020190198,211.60344020190198 0 0 0 714.7313488063023,271.91482182415297"/><text x="748.801720100951" y="300" text-anchor="start" style="font-color:black;font-weight:normal" transform="rotate(353.8983050847458,505,300)">0.8%&#160;&#160;&#160;Trichoderma</text><path class="line" d=" M 658.1027497291528,304.0771199172942 A 153.15702687584266,153.15702687584266 0 0 0 657.6687633509713,287.7801972874876"/><line x1="780.902188670073" y1="307.34726391682585" x2="658.1027497291528" y2="304.0771199172942"/><text x="505" y="124.69385191499407" text-anchor="middle" style="font-color:black;font-weight:normal" transform="rotate(448.47457627118644,505,300)">Xylariales</text><line x1="780.902188670073" y1="292.65273608317403" x2="689.7331380248405" y2="295.08056414559655"/><path class="line" d=" M 689.7331380248405,295.08056414559655 A 184.79862860321873,184.79862860321873 0 0 0 689.2094918745047,285.2556371121986"/><text x="735.3993143016094" y="300" text-anchor="start" style="font-color:black;font-weight:normal" transform="rotate(356.9491525423728,505,300)">0.8%&#160;&#160;&#160;Strickeria</text><path class="line" d=" M 689.7331380248405,304.91943585440333 A 184.79862860321873,184.79862860321873 0 0 0 689.7331380248405,295.08056414559655"/><text x="735.3993143016094" y="300" text-anchor="start" style="font-color:black;font-weight:normal" transform="rotate(360,505,300)">0.8%&#160;&#160;&#160;Microdochium</text><path class="line" d=" M 657.6687633509713,312.21980271251226 A 153.15702687584266,153.15702687584266 0 0 0 658.1027497291528,304.0771199172942"/><text x="719.5785134379214" y="300" text-anchor="start" style="font-color:black;font-weight:normal" transform="rotate(363.0508474576271,505,300)">0.8%&#160;&#160;&#160;Valsa</text><line x1="753.2101479272566" y1="420.69682044664404" x2="608.6407119831715" y2="350.39723198126967"/><path class="line" d=" M 608.6407119831715,350.39723198126967 A 115.2444279423202,115.2444279423202 0 0 0 619.8770295162949,309.19490409221055"/><text x="700.6222139711601" y="300" text-anchor="start" style="font-color:black;font-weight:normal" transform="rotate(375.2542372881356,505,300)">6%&#160;&#160;&#160;Penicillium</text><path class="line" d=" M 605.8115712619453,355.8417878604396 A 115.2444279423202,115.2444279423202 0 0 0 608.6407119831715,350.39723198126967"/><text x="700.6222139711601" y="300" text-anchor="start" style="font-color:black;font-weight:normal" transform="rotate(387.45762711864404,505,300)">0.8%&#160;&#160;&#160;NA</text><path class="line" d=" M 526.6712931295144,365.50843498431834 A 69,69 0 0 0 565.3586528327054,333.43401005295283"/><line x1="591.6851725180579" y1="562.0337399372733" x2="526.6712931295144" y2="365.50843498431834"/><text x="505" y="401.3710995596241" text-anchor="middle" style="font-color:black;font-weight:normal" transform="rotate(320.33898305084745,505,300)">Basidiomycota</text><line x1="632.2615304000141" y1="544.9091727156137" x2="558.138341558021" y2="402.26238227332533"/><path class="line" d=" M 558.138341558021,402.26238227332533 A 115.2444279423202,115.2444279423202 0 0 0 605.8115712619453,355.8417878604396"/><text x="505" y="441.7832471957859" text-anchor="middle" style="font-color:black;font-weight:normal" transform="rotate(315.7627118644067,505,300)">Tremellales</text><line x1="669.5973909566266" y1="521.5484120689458" x2="596.3378515595566" y2="422.9409279041442"/><path class="line" d=" M 596.3378515595566,422.9409279041442 A 153.15702687584266,153.15702687584266 0 0 0 638.9761132476567,374.21237067025055"/><text x="719.5785134379214" y="300" text-anchor="start" style="font-color:black;font-weight:normal" transform="rotate(401.18644067796606,505,300)">7%&#160;&#160;&#160;Cryptococcus</text><path class="line" d=" M 575.619556636724,435.9042056077741 A 153.15702687584266,153.15702687584266 0 0 0 596.3378515595566,422.9409279041442"/><text x="719.5785134379214" y="300" text-anchor="start" style="font-color:black;font-weight:normal" transform="rotate(417.9661016949152,505,300)">3%&#160;&#160;&#160;Dioszegia</text><line x1="619.0465632720724" y1="551.335197307956" x2="552.6204019676725" y2="404.94558346204917"/><path class="line" d=" M 552.6204019676725,404.94558346204917 A 115.2444279423202,115.2444279423202 0 0 0 558.138341558021,402.26238227332533"/><text x="700.6222139711601" y="300" text-anchor="start" style="font-color:black;font-weight:normal" transform="rotate(424.0677966101695,505,300)">0.8%&#160;&#160;&#160;Ustilentyloma</text><line x1="605.5083187697791" y1="557.0487849768454" x2="546.9674771741578" y2="407.33130499248193"/><path class="line" d=" M 546.9674771741578,407.33130499248193 A 115.2444279423202,115.2444279423202 0 0 0 552.6204019676725,404.94558346204917"/><text x="700.6222139711601" y="300" text-anchor="start" style="font-color:black;font-weight:normal" transform="rotate(427.11864406779665,505,300)">0.8%&#160;&#160;&#160;NA</text><path class="line" d=" M 541.1955910069744,409.41278427774546 A 115.2444279423202,115.2444279423202 0 0 0 546.9674771741578,407.33130499248193"/><text x="700.6222139711601" y="300" text-anchor="start" style="font-color:black;font-weight:normal" transform="rotate(430.1694915254237,505,300)">0.8%&#160;&#160;&#160;Pseudozyma</text><path class="line" d=" M 505,369 A 69,69 0 0 0 526.6712931295144,365.50843498431834"/><line x1="505.00000000000006" y1="576" x2="505" y2="369"/><text x="505" y="382.87332838269606" text-anchor="middle" style="font-color:black;font-weight:normal" transform="rotate(350.8474576271187,505,300)">Mucoromycota</text><line x1="548.9015249012641" y1="572.486065903091" x2="523.3311816052236" y2="413.777176765417"/><path class="line" d=" M 523.3311816052236,413.777176765417 A 115.2444279423202,115.2444279423202 0 0 0 541.1955910069744,409.41278427774546"/><text x="700.6222139711601" y="300" text-anchor="start" style="font-color:black;font-weight:normal" transform="rotate(436.271186440678,505,300)">3%&#160;&#160;&#160;Podila</text><path class="line" d=" M 505.00000000000006,415.2444279423202 A 115.2444279423202,115.2444279423202 0 0 0 523.3311816052236,413.777176765417"/><text x="505" y="426.61820762237693" text-anchor="middle" style="font-color:black;font-weight:normal" transform="rotate(355.42372881355925,505,300)">Mucoraceae</text><path class="line" d=" M 513.1513500626945,452.93995675951726 A 153.15702687584266,153.15702687584266 0 0 0 529.3616921347586,451.2070859377259"/><line x1="519.6893202564415" y1="575.6088240067863" x2="513.1513500626945" y2="452.93995675951726"/><text x="719.5785134379214" y="300" text-anchor="start" style="font-color:black;font-weight:normal" transform="rotate(443.8983050847457,505,300)">2%&#160;&#160;&#160;Mucor</text><path class="line" d=" M 505.00000000000006,453.1570268758427 A 153.15702687584266,153.15702687584266 0 0 0 513.1513500626945,452.93995675951726"/><text x="719.5785134379214" y="300" text-anchor="start" style="font-color:black;font-weight:normal" transform="rotate(448.47457627118644,505,300)">0.8%&#160;&#160;&#160;Ambomucor</text></svg>